<?xml version="1.0" encoding="UTF-8" standalone="no"?>
<!-- Created with Inkscape (http://www.inkscape.org/) -->

<svg
   version="1.1"
   id="svg2"
   xml:space="preserve"
   width="645.159"
   height="277.91049"
   viewBox="0 0 645.159 277.91049"
   sodipodi:docname="5b7a05b0549c4b2f557dc34e28955806.eps"
   xmlns:inkscape="http://www.inkscape.org/namespaces/inkscape"
   xmlns:sodipodi="http://sodipodi.sourceforge.net/DTD/sodipodi-0.dtd"
   xmlns="http://www.w3.org/2000/svg"
   xmlns:svg="http://www.w3.org/2000/svg"><defs
     id="defs6" /><sodipodi:namedview
     id="namedview4"
     pagecolor="#ffffff"
     bordercolor="#666666"
     borderopacity="1.0"
     inkscape:pageshadow="2"
     inkscape:pageopacity="0.0"
     inkscape:pagecheckerboard="0" /><g
     id="g8"
     inkscape:groupmode="layer"
     inkscape:label="ink_ext_XXXXXX"
     transform="matrix(1.3333333,0,0,-1.3333333,-0.01701445,277.91097)"><g
       id="g10"
       transform="scale(0.1)"><g
         id="g12"
         transform="scale(10)" /><path
         d="m 2348.07,624.25 -19.11,47.66 -17.72,-47.66 z m -24.92,76.59 h 11.92 l 53.11,-132.36 h -17.35 l -15.79,39 h -50.53 l -14.8,-39 h -17.43 l 50.87,132.36"
         style="fill:#656263;fill-opacity:1;fill-rule:nonzero;stroke:none"
         id="path14" /><path
         d="m 2442.47,623.621 -12.88,8.688 c -8.09,5.492 -13.84,10.89 -17.27,16.191 -3.42,5.309 -5.12,11.422 -5.12,18.332 0,10.359 3.24,18.777 9.71,25.238 6.46,6.469 14.87,9.711 25.21,9.711 9.9,0 18.97,-3.09 27.22,-9.261 v -21.391 c -8.53,9.133 -17.71,13.691 -27.56,13.691 -5.53,0 -10.09,-1.422 -13.65,-4.269 -3.54,-2.852 -5.33,-6.492 -5.33,-10.93 0,-3.941 1.31,-7.633 3.93,-11.07 2.62,-3.449 6.85,-7.063 12.65,-10.84 l 12.95,-8.52 c 14.46,-9.582 21.67,-21.793 21.67,-36.609 0,-10.551 -3.17,-19.133 -9.52,-25.711 -6.37,-6.609 -14.63,-9.902 -24.8,-9.902 -11.7,0 -22.36,3.992 -31.97,11.992 v 23.93 c 9.15,-12.903 19.75,-19.34 31.79,-19.34 5.31,0 9.73,1.64 13.26,4.929 3.55,3.29 5.31,7.399 5.31,12.329 0,8.023 -5.21,15.621 -15.6,22.812"
         style="fill:#656263;fill-opacity:1;fill-rule:nonzero;stroke:none"
         id="path16" /><path
         d="m 2533.98,623.621 -12.88,8.688 c -8.08,5.492 -13.84,10.89 -17.26,16.191 -3.41,5.309 -5.12,11.422 -5.12,18.332 0,10.359 3.23,18.777 9.71,25.238 6.46,6.469 14.87,9.711 25.21,9.711 9.9,0 18.97,-3.09 27.23,-9.261 v -21.391 c -8.53,9.133 -17.72,13.691 -27.57,13.691 -5.53,0 -10.09,-1.422 -13.65,-4.269 -3.55,-2.852 -5.33,-6.492 -5.33,-10.93 0,-3.941 1.3,-7.633 3.92,-11.07 2.62,-3.449 6.85,-7.063 12.66,-10.84 l 12.95,-8.52 c 14.46,-9.582 21.68,-21.793 21.68,-36.609 0,-10.551 -3.17,-19.133 -9.53,-25.711 -6.38,-6.609 -14.63,-9.902 -24.81,-9.902 -11.7,0 -22.37,3.992 -31.98,11.992 v 23.93 c 9.17,-12.903 19.77,-19.34 31.81,-19.34 5.31,0 9.73,1.64 13.26,4.929 3.54,3.29 5.31,7.399 5.31,12.329 0,8.023 -5.21,15.621 -15.61,22.812"
         style="fill:#656263;fill-opacity:1;fill-rule:nonzero;stroke:none"
         id="path18" /><path
         d="m 2596.15,700.082 h 67.16 v -16.773 h -50.2 V 643.18 h 48.51 v -16.86 h -48.51 v -40.89 h 51.81 v -16.77 h -68.77 v 131.422"
         style="fill:#656263;fill-opacity:1;fill-rule:nonzero;stroke:none"
         id="path20" /><path
         d="m 2724.31,623.621 -12.88,8.688 c -8.09,5.492 -13.84,10.89 -17.27,16.191 -3.41,5.309 -5.12,11.422 -5.12,18.332 0,10.359 3.24,18.777 9.71,25.238 6.46,6.469 14.87,9.711 25.21,9.711 9.9,0 18.96,-3.09 27.22,-9.261 v -21.391 c -8.53,9.133 -17.71,13.691 -27.56,13.691 -5.53,0 -10.09,-1.422 -13.65,-4.269 -3.55,-2.852 -5.33,-6.492 -5.33,-10.93 0,-3.941 1.3,-7.633 3.93,-11.07 2.62,-3.449 6.85,-7.063 12.65,-10.84 l 12.95,-8.52 c 14.46,-9.582 21.67,-21.793 21.67,-36.609 0,-10.551 -3.17,-19.133 -9.52,-25.711 -6.38,-6.609 -14.63,-9.902 -24.81,-9.902 -11.69,0 -22.37,3.992 -31.97,11.992 v 23.93 c 9.16,-12.903 19.76,-19.34 31.8,-19.34 5.31,0 9.73,1.64 13.26,4.929 3.55,3.29 5.31,7.399 5.31,12.329 0,8.023 -5.21,15.621 -15.6,22.812"
         style="fill:#656263;fill-opacity:1;fill-rule:nonzero;stroke:none"
         id="path22" /><path
         d="m 2815.81,623.621 -12.88,8.688 c -8.09,5.492 -13.84,10.89 -17.27,16.191 -3.41,5.309 -5.12,11.422 -5.12,18.332 0,10.359 3.24,18.777 9.71,25.238 6.46,6.469 14.87,9.711 25.21,9.711 9.9,0 18.96,-3.09 27.22,-9.261 v -21.391 c -8.53,9.133 -17.71,13.691 -27.56,13.691 -5.53,0 -10.09,-1.422 -13.65,-4.269 -3.55,-2.852 -5.33,-6.492 -5.33,-10.93 0,-3.941 1.3,-7.633 3.92,-11.07 2.63,-3.449 6.86,-7.063 12.66,-10.84 l 12.95,-8.52 c 14.46,-9.582 21.67,-21.793 21.67,-36.609 0,-10.551 -3.17,-19.133 -9.52,-25.711 -6.38,-6.609 -14.63,-9.902 -24.81,-9.902 -11.69,0 -22.37,3.992 -31.97,11.992 v 23.93 c 9.16,-12.903 19.76,-19.34 31.8,-19.34 5.31,0 9.73,1.64 13.26,4.929 3.55,3.29 5.31,7.399 5.31,12.329 0,8.023 -5.21,15.621 -15.6,22.812"
         style="fill:#656263;fill-opacity:1;fill-rule:nonzero;stroke:none"
         id="path24" /><path
         d="m 2972.19,700.082 h 15.84 V 568.48 h -17.04 v 102.399 l -36.42,-50.867 h -3.13 l -36.84,50.867 V 568.48 h -16.96 v 131.602 h 16.07 l 39.36,-54.051 39.12,54.051"
         style="fill:#656263;fill-opacity:1;fill-rule:nonzero;stroke:none"
         id="path26" /><path
         d="m 3025.53,700.082 h 67.16 v -16.773 h -50.21 V 643.18 h 48.51 v -16.86 h -48.51 v -40.89 h 51.82 v -16.77 h -68.77 v 131.422"
         style="fill:#656263;fill-opacity:1;fill-rule:nonzero;stroke:none"
         id="path28" /><path
         d="m 3217.84,700.082 h 16.1 V 568.48 h -14.57 l -79.19,101.352 V 568.48 h -15.94 v 131.602 h 13.73 l 79.87,-102.211 v 102.211"
         style="fill:#656263;fill-opacity:1;fill-rule:nonzero;stroke:none"
         id="path30" /><path
         d="m 3258.57,700.27 h 98.95 V 683.5 h -41.29 V 568.48 h -17.04 V 683.5 h -40.62 v 16.77"
         style="fill:#656263;fill-opacity:1;fill-rule:nonzero;stroke:none"
         id="path32" /><path
         d="m 3440.2,655.148 v 5.184 c 0,13.938 2.68,24.34 8.02,31.18 5.34,6.84 11.75,10.269 19.2,10.269 3.24,0 7.04,-0.57 11.46,-1.699 v -16.773 c -2.5,1.011 -4.87,1.511 -7.13,1.511 -6.04,0 -10.24,-1.789 -12.59,-5.371 -2.34,-3.578 -3.52,-9.949 -3.52,-19.117 v -5.184 h 13.9 v -15.449 h -13.9 V 568.48 h -15.44 v 71.219 h -11.18 v 15.449 h 11.18"
         style="fill:#656263;fill-opacity:1;fill-rule:nonzero;stroke:none"
         id="path34" /><path
         d="m 3527.68,639.879 c -7.4,0 -13.48,-2.688 -18.23,-8.098 -4.74,-5.402 -7.12,-12.281 -7.12,-20.633 0,-8.289 2.43,-15.058 7.29,-20.296 4.85,-5.25 11.1,-7.872 18.74,-7.872 7.57,0 13.77,2.661 18.6,7.969 4.83,5.313 7.25,12.102 7.25,20.391 0,8.23 -2.5,15.039 -7.54,20.441 -5.03,5.41 -11.35,8.098 -18.99,8.098 z m 0.85,15.453 c 11.87,0 21.72,-4.25 29.59,-12.762 7.86,-8.511 11.78,-19.211 11.78,-32.082 0,-12.476 -3.99,-22.859 -11.96,-31.136 -7.96,-8.25 -18,-12.383 -30.09,-12.383 -11.7,0 -21.48,4.203 -29.34,12.57 -7.85,8.391 -11.79,18.859 -11.79,31.422 0,12.687 3.98,23.25 11.93,31.699 7.93,8.449 17.89,12.672 29.88,12.672"
         style="fill:#656263;fill-opacity:1;fill-rule:nonzero;stroke:none"
         id="path36" /><path
         d="M 3612.94,655.148 V 635.27 l 0.84,1.511 c 7.47,13.367 14.92,20.059 22.39,20.059 5.82,0 11.9,-3.258 18.22,-9.801 l -8.13,-15.07 c -5.36,5.652 -10.35,8.48 -14.92,8.48 -4.97,0 -9.28,-2.64 -12.93,-7.91 -3.65,-5.277 -5.47,-11.527 -5.47,-18.75 V 568.48 h -15.52 v 86.668 h 15.52"
         style="fill:#656263;fill-opacity:1;fill-rule:nonzero;stroke:none"
         id="path38" /><path
         d="m 3734.45,700.082 h 16.96 V 568.48 h -16.96 v 131.602"
         style="fill:#656263;fill-opacity:1;fill-rule:nonzero;stroke:none"
         id="path40" /><path
         d="m 3881.17,700.082 h 16.1 V 568.48 h -14.57 l -79.19,101.352 V 568.48 h -15.94 v 131.602 h 13.73 l 79.87,-102.211 v 102.211"
         style="fill:#656263;fill-opacity:1;fill-rule:nonzero;stroke:none"
         id="path42" /><path
         d="m 3921.92,700.27 h 98.95 V 683.5 h -41.29 V 568.48 h -17.05 V 683.5 h -40.61 v 16.77"
         style="fill:#656263;fill-opacity:1;fill-rule:nonzero;stroke:none"
         id="path44" /><path
         d="m 4046.26,700.082 h 67.16 v -16.773 h -50.21 V 643.18 h 48.51 v -16.86 h -48.51 v -40.89 h 51.82 v -16.77 h -68.77 v 131.422"
         style="fill:#656263;fill-opacity:1;fill-rule:nonzero;stroke:none"
         id="path46" /><path
         d="m 4163.93,684.07 h -5.09 v -41.55 h 6.44 c 8.6,0 14.49,0.82 17.68,2.449 3.2,1.64 5.68,4.101 7.47,7.402 1.78,3.289 2.67,7.051 2.67,11.25 0,4.149 -1,7.899 -2.97,11.258 -1.98,3.359 -4.77,5.742 -8.35,7.109 -3.6,1.383 -9.54,2.082 -17.85,2.082 z m -22.05,-115.59 v 131.602 h 29.67 c 11.99,0 21.5,-3.301 28.54,-9.891 7.04,-6.589 10.55,-15.511 10.55,-26.75 0,-7.671 -1.72,-14.293 -5.18,-19.882 -3.44,-5.59 -8.39,-9.758 -14.83,-12.528 3.79,-2.769 7.49,-6.543 11.12,-11.312 3.61,-4.77 8.7,-13.09 15.26,-24.969 4.13,-7.469 7.43,-13.09 9.92,-16.852 l 6.27,-9.418 h -20.18 l -5.17,8.661 c -0.16,0.328 -0.5,0.859 -1.01,1.609 l -3.31,5.191 -5.24,9.61 -5.67,10.269 c -3.51,5.399 -6.72,9.7 -9.63,12.91 -2.91,3.192 -5.55,5.489 -7.89,6.911 -2.35,1.41 -6.31,2.109 -11.84,2.109 h -4.42 v -57.27 h -16.96"
         style="fill:#656263;fill-opacity:1;fill-rule:nonzero;stroke:none"
         id="path48" /><path
         d="m 4326.01,624.25 -19.11,47.66 -17.73,-47.66 z m -24.92,76.59 h 11.92 l 53.12,-132.36 h -17.37 l -15.77,39 h -50.55 l -14.8,-39 h -17.42 l 50.87,132.36"
         style="fill:#656263;fill-opacity:1;fill-rule:nonzero;stroke:none"
         id="path50" /><path
         d="m 4467.75,700.082 h 17.04 v -74.703 c 0,-10.117 -0.66,-17.75 -2,-22.891 -1.32,-5.148 -2.96,-9.449 -4.92,-12.859 -1.95,-3.43 -4.33,-6.488 -7.16,-9.199 -9.38,-8.969 -21.65,-13.461 -36.79,-13.461 -15.43,0 -27.81,4.453 -37.13,13.383 -2.84,2.75 -5.23,5.847 -7.18,9.277 -1.95,3.41 -3.56,7.621 -4.83,12.57 -1.27,4.961 -1.9,12.75 -1.9,23.36 v 74.523 h 17.04 v -74.703 c 0,-12.379 1.27,-20.981 3.81,-25.82 2.55,-4.84 6.42,-8.707 11.63,-11.629 5.19,-2.93 11.32,-4.379 18.39,-4.379 10.06,0 18.26,2.91 24.58,8.769 3.34,3.129 5.74,6.828 7.21,11.11 1.48,4.269 2.21,11.582 2.21,21.949 v 74.703"
         style="fill:#656263;fill-opacity:1;fill-rule:nonzero;stroke:none"
         id="path52" /><path
         d="m 4542.81,684.07 h -5.09 v -41.55 h 6.44 c 8.6,0 14.49,0.82 17.68,2.449 3.2,1.64 5.68,4.101 7.47,7.402 1.78,3.289 2.67,7.051 2.67,11.25 0,4.149 -1,7.899 -2.97,11.258 -1.98,3.359 -4.77,5.742 -8.35,7.109 -3.6,1.383 -9.54,2.082 -17.85,2.082 z m -22.05,-115.59 v 131.602 h 29.67 c 11.99,0 21.5,-3.301 28.54,-9.891 7.04,-6.589 10.55,-15.511 10.55,-26.75 0,-7.671 -1.72,-14.293 -5.18,-19.882 -3.44,-5.59 -8.39,-9.758 -14.83,-12.528 3.79,-2.769 7.49,-6.543 11.12,-11.312 3.61,-4.77 8.7,-13.09 15.26,-24.969 4.13,-7.469 7.43,-13.09 9.92,-16.852 l 6.27,-9.418 h -20.18 l -5.17,8.661 c -0.16,0.328 -0.5,0.859 -1.02,1.609 l -3.3,5.191 -5.24,9.61 -5.67,10.269 c -3.51,5.399 -6.72,9.7 -9.63,12.91 -2.91,3.192 -5.55,5.489 -7.89,6.911 -2.35,1.41 -6.31,2.109 -11.84,2.109 h -4.42 v -57.27 h -16.96"
         style="fill:#656263;fill-opacity:1;fill-rule:nonzero;stroke:none"
         id="path54" /><path
         d="m 4704.86,624.25 -19.12,47.66 -17.72,-47.66 z m -24.92,76.59 h 11.92 l 53.11,-132.36 h -17.36 l -15.78,39 h -50.54 l -14.8,-39 h -17.42 l 50.87,132.36"
         style="fill:#656263;fill-opacity:1;fill-rule:nonzero;stroke:none"
         id="path56" /><path
         d="m 4768.53,700.082 h 16.95 V 585.621 h 53.34 V 568.48 h -70.29 v 131.602"
         style="fill:#656263;fill-opacity:1;fill-rule:nonzero;stroke:none"
         id="path58" /><path
         d="m 2209.98,451.73 h -21.2 v -97.871 h 21.71 c 8.48,0 15.06,0.653 19.75,1.93 4.69,1.293 8.61,2.91 11.75,4.902 3.13,1.969 6,4.399 8.6,7.297 8.36,9.422 12.55,21.321 12.55,35.711 0,14.11 -4.3,25.641 -12.89,34.571 -3.17,3.32 -6.8,6.062 -10.89,8.179 -4.1,2.141 -7.99,3.571 -11.67,4.25 -3.67,0.692 -9.57,1.031 -17.71,1.031 z m -38.16,-114.64 v 131.422 h 39.94 c 16.11,0 28.86,-2.68 38.24,-8.063 9.38,-5.359 16.84,-13.258 22.38,-23.687 5.54,-10.43 8.31,-21.793 8.31,-34.102 0,-8.789 -1.52,-17.219 -4.58,-25.25 -3.05,-8.031 -7.4,-15.109 -13.05,-21.191 -5.77,-6.278 -12.47,-11.028 -20.1,-14.231 -4.47,-1.957 -8.56,-3.258 -12.29,-3.906 -3.74,-0.672 -10.85,-0.992 -21.37,-0.992 h -37.48"
         style="fill:#656263;fill-opacity:1;fill-rule:nonzero;stroke:none"
         id="path60" /><path
         d="m 2312.81,468.512 h 16.96 V 336.898 h -16.96 v 131.614"
         style="fill:#656263;fill-opacity:1;fill-rule:nonzero;stroke:none"
         id="path62" /><path
         d="m 2468.9,367.422 v -20.723 c -12.44,-7.539 -26.79,-11.308 -43.06,-11.308 -13.23,0 -24.46,2.949 -33.66,8.859 -9.22,5.91 -16.51,14.031 -21.88,24.41 -5.37,10.34 -8.05,21.559 -8.05,33.621 0,19.149 6.15,35.27 18.44,48.321 12.29,13.07 27.45,19.589 45.49,19.589 12.43,0 26.24,-3.589 41.45,-10.82 v -20.25 c -13.84,8.789 -27.37,13.188 -40.6,13.188 -13.56,0 -24.84,-4.758 -33.8,-14.278 -8.96,-9.511 -13.44,-21.429 -13.44,-35.75 0,-14.441 4.42,-26.312 13.24,-35.609 8.81,-9.301 20.1,-13.942 33.83,-13.942 14.36,0 28.37,4.899 42.04,14.692"
         style="fill:#656263;fill-opacity:1;fill-rule:nonzero;stroke:none"
         id="path64" /><path
         d="m 2584.06,468.512 h 16.96 V 336.898 h -16.96 v 57.282 h -66.57 v -57.282 h -16.96 v 131.614 h 16.96 v -56.903 h 66.57 v 56.903"
         style="fill:#656263;fill-opacity:1;fill-rule:nonzero;stroke:none"
         id="path66" /><path
         d="m 2695.53,452.48 c -13.55,0 -24.68,-4.691 -33.42,-14.109 -8.72,-9.422 -13.08,-21.461 -13.08,-36.09 0,-14.199 4.38,-26 13.13,-35.422 8.76,-9.418 19.7,-14.129 32.86,-14.129 13.22,0 24.25,4.79 33.09,14.418 8.84,9.59 13.26,21.563 13.26,35.883 0,13.949 -4.42,25.68 -13.26,35.18 -8.84,9.527 -19.7,14.269 -32.58,14.269 z m -0.67,17.918 c 18.3,0 33.54,-6.437 45.7,-19.316 12.18,-12.883 18.26,-29.023 18.26,-48.422 0,-19.41 -6.13,-35.48 -18.43,-48.191 -12.28,-12.719 -27.77,-19.078 -46.47,-19.078 -17.85,0 -32.71,6.359 -44.6,19.078 -11.91,12.711 -17.85,28.66 -17.85,47.812 0,19.66 6,35.918 17.97,48.801 11.97,12.879 27.11,19.316 45.42,19.316"
         style="fill:#656263;fill-opacity:1;fill-rule:nonzero;stroke:none"
         id="path68" /><path
         d="m 2773.41,468.691 h 98.95 V 451.93 h -41.29 V 336.898 h -17.05 V 451.93 h -40.61 v 16.761"
         style="fill:#656263;fill-opacity:1;fill-rule:nonzero;stroke:none"
         id="path70" /><path
         d="m 2897.34,468.512 h 16.95 V 336.898 h -16.95 v 131.614"
         style="fill:#656263;fill-opacity:1;fill-rule:nonzero;stroke:none"
         id="path72" /><path
         d="m 3053.77,367.422 v -20.723 c -12.43,-7.539 -26.79,-11.308 -43.08,-11.308 -13.22,0 -24.44,2.949 -33.65,8.859 -9.22,5.91 -16.5,14.031 -21.88,24.41 -5.36,10.34 -8.05,21.559 -8.05,33.621 0,19.149 6.15,35.27 18.45,48.321 12.28,13.07 27.46,19.589 45.47,19.589 12.44,0 26.26,-3.589 41.47,-10.82 v -20.25 c -13.85,8.789 -27.39,13.188 -40.61,13.188 -13.56,0 -24.83,-4.758 -33.79,-14.278 -8.96,-9.511 -13.43,-21.429 -13.43,-35.75 0,-14.441 4.4,-26.312 13.22,-35.609 8.82,-9.301 20.09,-13.942 33.83,-13.942 14.35,0 28.36,4.899 42.05,14.692"
         style="fill:#656263;fill-opacity:1;fill-rule:nonzero;stroke:none"
         id="path74" /><path
         d="M 3207.84,392.672 3188.72,440.34 3171,392.672 Z m -24.92,76.598 h 11.92 l 53.11,-132.372 h -17.36 l -15.78,39 h -50.54 l -14.8,-39 h -17.42 l 50.87,132.372"
         style="fill:#656263;fill-opacity:1;fill-rule:nonzero;stroke:none"
         id="path76" /><path
         d="m 3301.36,392.039 -12.88,8.699 c -8.08,5.481 -13.84,10.871 -17.27,16.184 -3.4,5.308 -5.12,11.43 -5.12,18.328 0,10.359 3.24,18.77 9.72,25.25 6.45,6.469 14.86,9.691 25.21,9.691 9.9,0 18.96,-3.082 27.22,-9.25 V 439.57 c -8.53,9.11 -17.72,13.668 -27.56,13.668 -5.54,0 -10.09,-1.429 -13.66,-4.269 -3.54,-2.84 -5.32,-6.489 -5.32,-10.93 0,-3.937 1.3,-7.641 3.92,-11.059 2.62,-3.441 6.85,-7.058 12.66,-10.839 l 12.95,-8.52 c 14.45,-9.59 21.66,-21.801 21.66,-36.621 0,-10.551 -3.16,-19.129 -9.52,-25.711 -6.37,-6.609 -14.63,-9.898 -24.8,-9.898 -11.7,0 -22.37,3.988 -31.98,11.988 v 23.93 c 9.16,-12.899 19.77,-19.34 31.81,-19.34 5.31,0 9.73,1.652 13.26,4.941 3.54,3.289 5.3,7.399 5.3,12.328 0,8.012 -5.2,15.621 -15.6,22.801"
         style="fill:#656263;fill-opacity:1;fill-rule:nonzero;stroke:none"
         id="path78" /><path
         d="m 3433.9,468.512 h 20.59 l -43.75,-62 v -69.614 h -17.38 v 69.614 l -43.75,62 h 20.47 l 31.7,-45.371 32.12,45.371"
         style="fill:#656263;fill-opacity:1;fill-rule:nonzero;stroke:none"
         id="path80" /><path
         d="m 3572.86,468.512 h 15.85 V 336.898 h -17.05 v 102.391 l -36.41,-50.867 h -3.14 l -36.84,50.867 V 336.898 h -16.96 v 131.614 h 16.07 l 39.36,-54.051 39.12,54.051"
         style="fill:#656263;fill-opacity:1;fill-rule:nonzero;stroke:none"
         id="path82" /><path
         d="m 3719.55,468.512 h 15.84 V 336.898 h -17.04 v 102.391 l -36.41,-50.867 h -3.14 l -36.84,50.867 V 336.898 H 3625 v 131.614 h 16.07 l 39.36,-54.051 39.12,54.051"
         style="fill:#656263;fill-opacity:1;fill-rule:nonzero;stroke:none"
         id="path84" /><path
         d="m 3772.03,468.512 h 67.16 V 451.73 h -50.2 v -40.121 h 48.51 v -16.871 h -48.51 v -40.879 h 51.81 V 337.09 h -68.77 v 131.422"
         style="fill:#656263;fill-opacity:1;fill-rule:nonzero;stroke:none"
         id="path86" /><path
         d="M 3856.05,468.691 H 3955 V 451.93 h -41.3 V 336.898 h -17.04 V 451.93 h -40.61 v 16.761"
         style="fill:#656263;fill-opacity:1;fill-rule:nonzero;stroke:none"
         id="path88" /><path
         d="m 4002.43,452.48 h -5.09 v -41.531 h 6.44 c 8.6,0 14.49,0.821 17.67,2.449 3.21,1.622 5.69,4.09 7.47,7.403 1.78,3.281 2.67,7.031 2.67,11.25 0,4.14 -0.99,7.89 -2.96,11.25 -1.99,3.359 -4.78,5.738 -8.36,7.129 -3.59,1.371 -9.54,2.05 -17.84,2.05 z m -22.05,-115.582 v 131.614 h 29.67 c 11.99,0 21.49,-3.301 28.53,-9.903 7.04,-6.589 10.55,-15.507 10.55,-26.75 0,-7.66 -1.71,-14.277 -5.17,-19.871 -3.44,-5.597 -8.39,-9.777 -14.83,-12.539 3.78,-2.75 7.48,-6.519 11.11,-11.301 3.62,-4.777 8.71,-13.089 15.27,-24.968 4.12,-7.469 7.43,-13.09 9.91,-16.86 l 6.27,-9.422 h -20.17 l -5.18,8.672 c -0.15,0.321 -0.49,0.852 -1.01,1.61 l -3.3,5.191 -5.25,9.609 -5.66,10.27 c -3.52,5.398 -6.72,9.699 -9.63,12.898 -2.91,3.204 -5.55,5.5 -7.9,6.903 -2.34,1.429 -6.3,2.129 -11.83,2.129 h -4.42 v -57.282 h -16.96"
         style="fill:#656263;fill-opacity:1;fill-rule:nonzero;stroke:none"
         id="path90" /><path
         d="m 4154.97,468.512 h 20.59 l -43.75,-62 v -69.614 h -17.38 v 69.614 l -43.75,62 h 20.47 l 31.7,-45.371 32.12,45.371"
         style="fill:#656263;fill-opacity:1;fill-rule:nonzero;stroke:none"
         id="path92" /><path
         d="m 3670.83,1456.93 h 2.36 l 10.95,-301.4 h -132.32 z m -240.24,-608.739 70.79,172.659 h 186.9 l 8.7,-172.659 h 182.14 l -69.94,834.789 h -195.8 L 3248.44,848.191 Z M 2849.42,1538.21 H 2904 c 112.34,0 152.16,-92.77 119.44,-278.26 -15.55,-88.21 -41.07,-155.54 -76.55,-202.03 -35.51,-46.48 -85.49,-69.709 -149.95,-69.709 h -44.5 z M 2794.2,848.191 c 79.9,0 149.83,20.848 209.79,62.598 59.97,41.723 107.49,94.711 142.55,158.991 35.08,64.28 58.7,131.02 70.91,200.25 12.77,72.38 12.21,139.33 -1.67,200.85 -13.87,61.49 -44.23,111.42 -91.06,149.8 -46.83,38.36 -111.4,57.55 -193.66,57.55 H 2685.44 L 2539.07,848.191 Z m -510.01,0 146.35,830.039 H 2241.87 L 2095.52,848.191 Z m -625.14,702.939 h 2.74 l 12.63,-348.05 h -152.79 z m -277.42,-702.939 81.73,199.369 h 215.83 l 10.06,-199.369 h 210.34 L 1818.8,1812.18 H 1592.7 L 1171.28,848.191 h 210.35 v 0"
         style="fill:#231f20;fill-opacity:1;fill-rule:nonzero;stroke:none"
         id="path94" /><path
         d="m 287.418,1666.04 c 0,0 -336.5157,-194.9 -245.4883,-622.49"
         style="fill:none;stroke:#de1a34;stroke-width:52.6184;stroke-linecap:round;stroke-linejoin:miter;stroke-miterlimit:10;stroke-dasharray:none;stroke-opacity:1"
         id="path96" /><path
         d="m 349.75,1475.93 c 0,0 -160.496,-110.19 -137.742,-350.94"
         style="fill:none;stroke:#de1a34;stroke-width:52.6184;stroke-linecap:round;stroke-linejoin:miter;stroke-miterlimit:10;stroke-dasharray:none;stroke-opacity:1"
         id="path98" /><path
         d="M 803.629,1007.96 C 733.273,894.73 629.902,831.73 572.742,867.25 c -57.156,35.52 -46.457,156.1 23.899,269.32 70.351,113.23 173.722,176.23 230.882,140.72 57.157,-35.52 46.457,-156.1 -23.894,-269.33 z m 77.617,368.03 C 791.441,1431.8 631.461,1336.73 523.918,1163.65 416.375,990.582 402,805.031 491.805,749.23 c 89.808,-55.8 249.789,39.27 357.332,212.34 107.539,173.08 121.918,358.62 32.109,414.42 z m 433.694,493.21 c -267.48,-157.86 -363.948,-405.24 -369.792,-440.31 -5.847,-35.08 55.542,-33.26 59.922,-170.65 C 1009.46,1120.85 926.145,929.379 793.141,787.602 660.133,645.82 505.199,603.441 407.27,701.359 c -97.926,97.93 -119.516,267.551 -11.329,512.671 101.86,230.77 313.883,343.85 331.426,352.61 17.539,8.77 35.078,51.16 225.086,251.4 190.017,200.25 479.417,309.87 752.737,249.94 273.32,-59.93 431.18,-325.94 431.18,-325.94 l -85.97,-8.48 c -207.29,244.39 -467.99,293.49 -735.46,135.64"
         style="fill:#de1a34;fill-opacity:1;fill-rule:nonzero;stroke:none"
         id="path100" /><path
         d="m 2080.83,793.449 h 146.16 c 0,0 -131.55,-248.48 -320.1,-381.488 -188.54,-133 -270.4,-156.391 -312.78,-195.852 -42.39,-39.468 -131.24,-121.3473 -213.4,-59.929 -66.92,50.019 -27.57,194.332 58.81,288.75 83.02,90.75 176.51,132.199 229.13,97.121 52.62,-35.082 45.31,-78.93 45.31,-78.93 0,0 102.31,46.77 201.7,135.93 99.39,89.16 165.17,194.398 165.17,194.398"
         style="fill:#de1a34;fill-opacity:1;fill-rule:nonzero;stroke:none"
         id="path102" /><path
         d="m 1773.89,534.738 c 0,0 51.15,181.242 -57.01,239.703 -20.99,11.348 -40.07,4.84 -62.85,17.539 -76,42.391 -256.79,-3.218 -394.63,-166.621 -172.36,-204.308 -187.09,-353.711 -181.24,-410.718 5.84,-57 19,-62.852 24.84,-105.231 5.85,-42.3905 74.55,-194.3983 331.79,-45.3084 0,0 -92.08,-33.6211 -143.24,2.9179 -51.15,36.5395 -92.08,149.0895 24.85,339.1015 116.93,190.008 283.47,274.469 380.02,248.469 76.01,-20.461 77.47,-119.852 77.47,-119.852"
         style="fill:#de1a34;fill-opacity:1;fill-rule:nonzero;stroke:none"
         id="path104" /></g></g></svg>
